<?xml version="1.0" encoding="utf-8"?>
<!-- Generator: Adobe Illustrator 24.1.1, SVG Export Plug-In . SVG Version: 6.00 Build 0)  -->
<svg version="1.1" id="Layer_1" xmlns="http://www.w3.org/2000/svg" xmlns:xlink="http://www.w3.org/1999/xlink" x="0px" y="0px"
	 viewBox="0 0 1920 437.14" style="enable-background:new 0 0 1920 437.14;" xml:space="preserve">
<style type="text/css">
	.st0{fill:#8257A3;}
	.st1{font-family:'Montserrat-ExtraLight';}
	.st2{font-size:264.2617px;}
	.st3{font-family:'SweetSansPro-ExThin';}
	.st4{font-size:58.5324px;}
	.st5{letter-spacing:23;}
</style>
<text transform="matrix(1 0 0 1 501.8037 268.5705)" class="st0 st1 st2">kokoro</text>
<text transform="matrix(1 0 0 1 531.4629 344.1618)" class="st0 st3 st4 st5">publicidad integral</text>
<g>
	<path class="st0" d="M420.67,166.03c-14.92-40.38-40.06-61.93-40.06-61.93c7.57,15.2,19.85,25.83,33.97,55.61
		c14.12,29.79,10.75,55.38,10.38,65.63c-0.37,10.24-0.18,15.93-0.18,15.93S435.59,206.4,420.67,166.03z"/>
	<path class="st0" d="M199.62,83.42c13.26-7.99,31.24-17.87,51.59-21.31c47.92-8.1,90.68,19.14,102.54,23.93
		c11.86,4.79,12.96,2.29,12.96,2.29s-48.08-38.75-110.81-30.12c-64.6,8.89-85.18,44.36-85.18,44.36
		C173.53,106.39,181.67,94.23,199.62,83.42z"/>
	<path class="st0" d="M410.81,160.13c0,0-0.86,2.29,0.29,6.67c1.15,4.39,3.4,14.35,0.22,23.42c0,0-3.92-57.35-52.54-91.83
		c-48.61-34.48-81.56-33.86-105.94-30.39c-24.93,3.55-85.94,23.95-112.6,99.28c-6.29,17.78-8.53,35.09-7.67,51.54
		c0.04-0.59,4-17.84,4.18-11.28c0.71,25.83,6.16,56.61,15.9,74.75c-2.41-3.99-4.91-8.4-7.31-13.07c3.8,8.19,8.32,15.91,13.33,23.11
		c3.13,4.67,6.72,9.34,10.83,13.94l0.04-0.04c14.65,16.8,31.85,29.66,48.35,36.98c59.9,26.57,105.33,31.31,157.54-10.91
		c0,0-3.79-1.04-7.09,1.47c-3.3,2.5-30.55,17.89-39.45,18.01c-1.8,0.02,12.49-3.34,42.2-27.34c11.57-9.35,20.9-20.85,28.2-33.31
		c-5.34,6.95-7.99,8.17-3.34-1.94c7.31-15.89,6.88-30.08,9.1-25.69c2.03,4.02-1.26,13.68-3.46,20.3c-0.56,1.69,0.74,1.22,1.73-0.04
		c12.34-24.21,17.51-51.04,16.75-72.44C418.84,176.47,410.81,160.13,410.81,160.13z M205.64,269.1c-2.43,3.55-4.62,7.45-7.75,10.28
		c-2.53,2.29-5.77,4.54-9.91,3.67c-1.13-0.24-2.45,0.58-3.69,0.67c-0.74,0.05-1.84-0.15-2.22-0.65c-2.22-2.97-7.12-2-8.6-5.95
		c-0.92-2.45-2.25-4.83-2.64-7.36c-0.33-2.12,0.24-4.45,0.76-6.6c1.81-7.59,3.64-15.17,5.73-22.69c0.93-3.36,2.18-6.72,3.87-9.76
		c1.35-2.42,3.53-4.4,5.44-6.49c1.49-1.64,2.63-3.36,2.62-5.67c0-0.3,0.08-0.65,0.24-0.9c1.5-2.39,2.98-4.81,4.58-7.14
		c1.05-1.53,2.53-1.41,3.06,0.23c2,6.2,4.45,12.32,5.7,18.67c0.99,5.07,0.57,10.44,0.6,15.68c0.01,3-0.07,6.05-0.58,9
		c-0.8,4.63-1.98,9.2-3,13.79c-0.15,0.69-0.28,1.38-0.42,2.07c0.19,0.19,0.38,0.39,0.57,0.58c1.88-1.51,3.75-3.01,6.24-5.01
		C205.99,267.12,206.16,268.34,205.64,269.1z M272.41,165.28c1.09-1.62,2.17-3.25,3.1-4.64c4.18,4.19,8.37,8.13,12.25,12.36
		c4.02,4.37,6.53,9.72,8.92,15.12c1.56,3.52,3.33,6.96,5.33,11.1c10.46-12.1,19.02-24.57,27.09-37.49c-0.61,1.92-1.1,3.88-1.84,5.74
		c-1.32,3.33-2.79,6.6-4.21,9.89c-1.57,3.63-3.13,7.28-4.75,10.89c-2.72,6.05-5.5,12.07-8.19,18.13c-0.32,0.73-0.18,1.66-0.35,2.47
		c-0.21,1.03-0.21,2.37-0.85,2.99c-1.34,1.29-3.04,2.19-4.77,3.37c0.37,0.79,0.76,1.59,1.36,2.87c-3.71-1.68-5.82,1.53-8.59,2.11
		c-5.36,1.13-10.93,2.26-16.31-0.32c-4.95-2.38-7.6-6.63-8.59-11.73c-1.65-8.59-3.05-17.24-4.19-25.92
		C267.02,176.06,268.95,170.41,272.41,165.28z M354.95,254.38c-1.25,5.59-0.36,11.9-4.7,16.61c-5.28,5.73-10.32,11.73-15.97,17.07
		c-4.74,4.49-11,5.87-17.47,6.19c-13.86,0.68-26.55-3.15-38.36-10.05c-4.56-2.66-8.74-5.98-13.11-8.98
		c-0.9-0.62-1.89-1.11-2.85-1.66c-0.32-0.19-0.88-0.29-0.96-0.53c-0.9-3.11-3.84-4.27-5.9-6.27c-1.14-1.1-2.19-2.28-3.27-3.42
		c0.15-0.17,0.3-0.34,0.45-0.5c0.59,0.3,1.18,0.59,1.76,0.89c0.1-0.23,0.2-0.46,0.3-0.7c-0.86-0.26-1.96-0.27-2.54-0.83
		c-1.51-1.44-2.86-3.07-4.14-4.72c-2.35-3.02-4.73-6.02-6.86-9.19c-1.17-1.75-1.84-3.83-2.78-5.75c-2.18-4.42-4.1-9-6.68-13.17
		c-1.58-2.55-3.28-5.05-4.45-7.78c-1.14-2.64-1.77-5.51-2.51-8.3c-1.35-5.06-2.94-10.08-3.83-15.22c-1.02-5.95-1.43-11.88-0.3-18.07
		c1.06-5.78,3.91-9.9,8.04-13.45c0.6-0.52,2.85,0.03,3.68,0.8c1.92,1.76,3.49,3.93,5.12,5.99c5.26,6.67,8.55,14.31,11.08,22.36
		c1.81,5.75,4.01,11.39,5.9,17.12c1.65,5,2.87,10.15,4.75,15.05c1.48,3.87,3.9,7.38,5.48,11.22c1.14,2.78,2.93,4.86,4.97,6.9
		c2.19,2.19,4.15,4.62,6.37,6.78c2.63,2.57,5.24,5.23,8.19,7.38c3.36,2.45,7,4.55,10.67,6.52c7.58,4.07,15.79,5.68,24.34,5.44
		c2.94-0.08,5.92-0.4,8.77-1.08c4.82-1.16,6.41-5.27,7.99-9.39c3.08-8.06,2.37-16.52,2.76-24.86c0.29-6.3,0.32-12.62,0.81-18.9
		c0.35-4.43,1.16-8.84,1.98-13.23c1.5-8.05,3.36-16.06,1.74-24.35c0.25-0.11,0.51-0.21,0.76-0.32c0.89,1.72,2.07,3.35,2.6,5.18
		c0.62,2.17,0.81,4.49,0.95,6.76c0.27,4.33,0.41,8.67,0.55,13.01c0.13,4.01,0.06,8.03,0.36,12.03c0.12,1.59,1.18,3.08,1.5,4.68
		c0.64,3.21,1.02,6.46,1.58,9.69c0.75,4.32,1.67,8.61,2.33,12.94C354.55,247.64,355.66,251.24,354.95,254.38z M387.83,166.28
		c-0.32,1.11-0.93,2.28-0.79,3.35c1.05,7.88-3.79,13.27-7.9,19.07c0.06-3.45,0.04-6.81-2.36-9.52c-1.2-1.36-2.55-2.63-3.98-3.75
		c-7.72-6.08-14.77-12.74-18.87-21.9c-2.29-5.11-4.31-10.32-2.88-16.13c0.1-0.39-0.15-0.87-0.31-1.64
		c5.01,1.26,9.82,2.28,14.51,3.68c7.07,2.11,13.21,5.94,18.67,10.86c0.53,0.48,1.11,0.91,1.65,1.38c2.12,1.84,4.29,3.6,3.18,6.99
		c-0.22,0.66,0.76,1.67,0.62,2.4C389.04,162.83,388.34,164.53,387.83,166.28z"/>
</g>
<g>
	<g>
		<g>
			<g>
				<path class="st0" d="M480.57,85.11c-0.25,2.91-0.4,5.83-0.79,8.72c-0.22,1.65-0.8,3.24-1.28,4.84c-0.22,0.75-0.35,1.5-0.38,2.29
					c-0.05,1.44-0.18,2.87-0.24,4.3c-0.04,1.03-0.02,2.06-0.04,3.08c-0.01,0.49,0,1-0.11,1.46c-0.29,1.19-0.66,2.35-0.97,3.54
					c-0.19,0.71-0.25,1.39-0.01,2.16c0.3,0.94,0.16,1.94,0,2.93c-0.34,2.1-0.7,4.19-0.58,6.35c0.07,1.15-0.04,2.31-0.02,3.46
					c0.02,0.98,0.11,1.95,0.17,2.93c0.01,0.2,0.06,0.43,0,0.61c-0.4,1.15-0.26,2.36-0.3,3.55c-0.03,0.86-0.11,1.73-0.18,2.59
					c-0.15,1.85-0.35,3.69-0.45,5.54c-0.04,0.68,0.16,1.38,0.22,2.08c0.06,0.78,0.13,1.56,0.11,2.33c-0.03,1.48-0.12,2.96-0.18,4.43
					c-0.07,1.85-0.16,3.7-0.2,5.55c-0.05,2.39,0.14,4.77,0.36,7.15c0.09,0.97,0.04,1.98-0.09,2.95c-0.32,2.4-0.83,4.77-1.06,7.18
					c-0.27,2.78-0.52,5.58,0.07,8.37c0.14,0.67,0.14,1.39,0.18,2.09c0.11,2.05,0.45,4.09,0.22,6.17c-0.07,0.6,0,1.23,0.06,1.84
					c0.1,0.99,0.16,1.97-0.26,2.9c-0.27,0.59-0.26,1.21,0.03,1.78c0.28,0.54,0.32,1.07,0.14,1.65c-0.53,1.75-0.05,3.5-0.02,5.25
					c0.01,0.4,0.03,0.81,0.02,1.21c-0.03,1.07-0.07,2.13-0.12,3.2c-0.05,1.06-0.13,2.13-0.16,3.19c-0.02,0.69-0.1,1.45,0.09,2.08
					c0.44,1.47,0.49,2.98,0.55,4.5c0.08,2.14,0.28,4.27,0.31,6.4c0.03,1.59,0.21,3.17-0.06,4.79c-0.31,1.82-0.16,3.7-0.01,5.54
					c0.17,2.09,0.52,4.15,0.24,6.26c-0.1,0.72-0.01,1.48,0.01,2.22c0.04,1.65,0.09,3.29,0.14,4.94c0.05,1.6,0.12,3.21,0.15,4.81
					c0.02,1.07-0.04,2.13-0.04,3.2c0,0.48,0.02,0.98,0.12,1.45c0.12,0.57,0.12,1.1,0.08,1.69c-0.08,1.06-0.02,2.14,0.05,3.2
					c0.06,0.94,0.23,1.86,0.3,2.8c0.06,0.82,0.03,1.64-0.25,2.43c-0.15,0.41-0.22,0.87-0.26,1.32c-0.26,3.11-0.59,6.22-0.17,9.35
					c0.01,0.08,0.03,0.17,0.02,0.25c-0.17,2.11,0.27,4.18,0.25,6.29c-0.01,0.98-0.07,1.98,0.32,2.92c0.11,0.27,0.08,0.65,0.05,0.98
					c-0.05,0.66-0.08,1.29,0.18,1.93c0.12,0.29,0.02,0.73-0.05,1.08c-0.23,1.06-0.26,2.1,0.04,3.16c0.1,0.34,0.07,0.73,0.08,1.1
					c0.02,2.27-0.08,4.54,0.08,6.79c0.16,2.19,0.34,4.4,0.91,6.53c0.53,1.96,1.01,3.93,1.65,5.85c0.4,1.22,0.5,2.57,0.74,3.86
					c0.11,0.6,0.21,1.21,0.38,1.8c0.86,3.03,1.3,6.14,1.61,9.31c0.19,1.99,0.11,3.95,0.02,5.93c-0.11,2.54-0.51,5-1.64,7.22
					c-1.04,2.06-2.27,3.9-4.32,4.77c-0.43,0.18-0.82,0.51-1.25,0.7c-0.46,0.21-0.94,0.36-1.41,0.5c-0.79,0.23-1.66,0.28-2.37,0.69
					c-1.12,0.64-2.07,0.26-2.88-0.49c-1.36-1.27-2.53-2.74-3.43-4.53c-0.88-1.75-1.42-3.55-1.63-5.56
					c-0.18-1.79-0.63-3.55-0.86-5.34c-0.2-1.54-0.35-3.07,0.13-4.64c0.35-1.15,0.46-2.41,0.61-3.63c0.22-1.72,0.55-3.4,1.17-4.99
					c0.18-0.45,0.37-0.9,0.52-1.36c0.17-0.5,0.43-1.02,0.42-1.52c-0.04-1.59,0.69-2.93,0.98-4.41c0.15-0.76,0.33-1.53,0.35-2.3
					c0.05-1.78,0.1-3.53,0.63-5.24c0.21-0.68,0.21-1.46,0.27-2.19c0.09-1.06-0.06-2.22,0.27-3.17c0.37-1.08,0.19-2.08,0.18-3.11
					c-0.02-1.15-0.15-2.29-0.19-3.44c-0.03-0.86-0.03-1.73,0-2.6c0.05-1.4,0.15-2.79,0.21-4.19c0.07-1.6,0.15-3.2,0.19-4.81
					c0.02-0.78-0.1-1.57-0.03-2.34c0.14-1.63,0.11-3.28,0.57-4.87c0.13-0.44,0.03-0.98,0.04-1.47c0.02-1.65,0.02-3.3,0.07-4.95
					c0.03-1.03,0.11-2.05,0.23-3.07c0.11-0.95,0.09-1.87,0.04-2.83c-0.08-1.6,0.04-3.21,0.08-4.81c0.01-0.33,0.04-0.66,0.04-0.99
					c0-1.86,0.19-3.7,0.39-5.54c0.28-2.53,0.59-5.07,0.7-7.61c0.13-2.96,0.33-5.92,0.18-8.9c-0.15-3-0.15-6.01-0.13-9.01
					c0.01-1.28,0.06-2.53-0.23-3.79c-0.33-1.38-0.18-2.76,0.07-4.16c0.34-1.86,0.24-3.75,0.06-5.64c-0.07-0.72,0-1.47-0.03-2.2
					c-0.04-0.86-0.11-1.73-0.2-2.58c-0.11-1.04,0.09-2.04,0.2-3.06c0.07-0.65,0.08-1.31,0.01-1.96c-0.16-1.51-0.44-2.98-0.32-4.54
					c0.08-1-0.19-2.04-0.29-3.06c-0.03-0.28-0.11-0.59-0.05-0.84c0.27-1.03,0.15-2.08,0-3.07c-0.19-1.26,0.19-2.45,0.15-3.68
					c-0.03-0.73,0.06-1.47,0.05-2.2c-0.01-0.94-0.12-1.89-0.11-2.83c0.01-1.04-0.02-2.05-0.43-3.01c-0.17-0.39-0.23-0.87-0.22-1.31
					c0.01-1.11,0.12-2.22,0.13-3.33c0.01-1.4,0-2.8-0.09-4.19c-0.08-1.24-0.08-2.46,0.03-3.7c0.25-2.79,0.48-5.59,0.36-8.39
					c-0.08-2.01-0.35-4.01-0.48-6.02c-0.07-1.02-0.04-2.05-0.04-3.07c0-0.33,0.06-0.66,0.03-0.99c-0.19-1.74-0.13-3.51-0.55-5.23
					c-0.28-1.12-0.21-2.27-0.16-3.44c0.05-1.48-0.02-2.97-0.17-4.44c-0.17-1.59-0.43-3.14-0.18-4.78c0.14-0.9-0.1-1.87-0.14-2.82
					c-0.03-0.74,0.01-1.48,0.01-2.22c0.01-0.86,0-1.72,0.03-2.59c0.02-0.62,0.13-1.23,0.11-1.84c-0.08-2.43-0.17-4.85-0.69-7.22
					c-0.05-0.24-0.15-0.49-0.13-0.72c0.15-1.63-0.26-3.19-0.38-4.79c-0.01-0.16-0.06-0.35-0.01-0.49c0.24-0.7-0.03-1.28-0.26-1.89
					c-0.1-0.27-0.14-0.65-0.05-0.92c0.36-1.15,0.28-2.29-0.08-3.37c-0.33-0.99-0.82-1.92-1.23-2.87c-0.51-1.18-1.04-2.34-1.5-3.54
					c-0.72-1.88-0.8-3.91-0.95-5.93c-0.06-0.86-0.12-1.73-0.32-2.56c-0.46-1.93-0.43-3.83,0.02-5.74c0.19-0.79,0.38-1.59,0.53-2.39
					c0.37-2.04,1.38-3.5,2.96-4.44c0.54-0.32,1.11-0.57,1.68-0.79c0.95-0.36,1.92-0.62,2.87-1c2.95-1.18,5.77,0.12,7.55,2.68
					c0.29,0.42,0.57,0.85,0.84,1.28C480.08,80.02,480.59,82.46,480.57,85.11z"/>
			</g>
		</g>
	</g>
</g>
</svg>
