<svg id="svg" version="1.1" xmlns="http://www.w3.org/2000/svg" xmlns:xlink="http://www.w3.org/1999/xlink" width="400" height="93.85342789598108" viewBox="0, 0, 400,93.85342789598108"><g id="svgg"><path id="path0" d="M39.500 3.743 C 39.362 3.777,38.462 3.890,37.500 3.993 C 34.689 4.295,32.248 4.736,30.083 5.330 C 29.350 5.532,28.637 5.722,28.500 5.754 C 25.715 6.390,18.133 10.002,17.167 11.152 C 17.121 11.206,16.779 11.457,16.407 11.709 C 14.835 12.774,11.167 16.658,11.167 17.256 C 11.167 18.057,13.258 16.929,15.250 15.054 C 15.433 14.881,15.883 14.518,16.250 14.246 C 16.617 13.974,16.954 13.710,17.000 13.659 C 17.225 13.408,20.594 11.214,21.167 10.946 C 21.304 10.882,21.792 10.605,22.250 10.332 C 23.347 9.679,26.600 8.096,28.000 7.535 C 29.728 6.842,30.191 6.674,31.000 6.443 C 31.504 6.299,31.954 6.183,32.000 6.186 C 32.046 6.188,32.307 6.105,32.580 6.001 C 33.965 5.475,39.383 4.906,41.409 5.074 C 42.147 5.136,43.200 5.220,43.750 5.261 C 44.845 5.344,46.495 5.600,47.667 5.869 C 48.079 5.963,48.567 6.063,48.750 6.090 C 49.043 6.132,49.739 6.316,51.583 6.837 C 52.326 7.046,54.178 7.683,54.750 7.925 C 55.025 8.042,55.775 8.344,56.417 8.597 C 58.201 9.301,59.562 9.921,61.729 11.014 C 65.786 13.062,68.833 13.953,68.833 13.091 C 68.833 12.478,61.990 8.518,58.917 7.352 C 58.367 7.144,57.789 6.906,57.633 6.824 C 57.239 6.616,54.621 5.736,53.417 5.406 C 50.862 4.708,49.824 4.509,46.083 3.995 C 44.741 3.811,39.965 3.628,39.500 3.743 M38.500 6.578 C 38.362 6.611,37.575 6.722,36.750 6.825 C 31.268 7.511,25.685 9.423,21.417 12.077 C 21.050 12.305,20.527 12.616,20.254 12.769 C 19.728 13.064,17.186 14.873,16.524 15.423 C 13.833 17.661,11.006 20.562,9.440 22.695 C 9.014 23.275,8.605 23.825,8.532 23.917 C 8.458 24.008,8.385 24.141,8.369 24.212 C 8.353 24.282,8.191 24.500,8.008 24.696 C 7.105 25.666,4.427 30.587,3.228 33.482 C 1.698 37.175,1.017 39.594,0.268 44.000 C -0.015 45.667,-0.102 51.735,0.163 51.333 C 0.254 51.196,0.329 50.945,0.331 50.776 C 0.335 50.284,1.027 48.138,1.144 48.255 C 1.202 48.313,1.257 49.049,1.265 49.889 C 1.274 50.729,1.370 52.129,1.478 53.000 C 1.587 53.871,1.755 55.221,1.851 56.000 C 1.947 56.779,2.126 57.904,2.249 58.500 C 2.371 59.096,2.562 60.033,2.672 60.583 C 2.783 61.133,2.945 61.846,3.032 62.167 C 3.118 62.487,3.328 63.275,3.498 63.917 C 3.668 64.558,3.961 65.496,4.148 66.000 C 4.364 66.578,4.401 66.800,4.251 66.601 C 4.119 66.428,3.982 66.203,3.945 66.101 C 3.909 66.000,3.824 65.968,3.756 66.031 C 3.612 66.164,5.404 69.637,6.350 71.061 C 6.708 71.598,7.000 72.072,7.000 72.114 C 7.000 72.156,7.094 72.295,7.208 72.423 C 7.578 72.835,7.746 73.075,7.974 73.519 C 8.098 73.759,8.379 74.149,8.599 74.387 C 8.820 74.624,9.000 74.891,9.000 74.979 C 9.000 75.067,9.056 75.164,9.125 75.194 C 9.194 75.225,9.758 75.857,10.380 76.600 C 11.725 78.207,15.180 81.571,16.583 82.640 C 17.133 83.058,17.621 83.449,17.667 83.509 C 17.849 83.743,20.228 85.368,20.763 85.623 C 21.077 85.773,21.333 85.939,21.333 85.992 C 21.333 86.092,23.711 87.318,25.333 88.055 C 25.837 88.283,26.587 88.624,27.000 88.811 C 28.074 89.297,32.099 90.825,33.083 91.119 C 33.542 91.256,34.179 91.464,34.500 91.583 C 34.821 91.701,35.421 91.890,35.833 92.003 C 36.246 92.115,36.921 92.307,37.333 92.429 C 37.746 92.551,38.646 92.763,39.333 92.900 C 40.021 93.037,40.808 93.197,41.083 93.256 C 48.113 94.761,57.345 93.472,63.167 90.171 C 63.579 89.937,64.348 89.525,64.875 89.254 C 65.402 88.984,65.833 88.704,65.833 88.631 C 65.833 88.559,65.910 88.500,66.004 88.500 C 66.315 88.500,70.044 85.909,70.862 85.125 C 71.030 84.965,71.242 84.833,71.333 84.833 C 71.425 84.833,71.500 84.758,71.500 84.667 C 71.500 84.211,69.814 84.502,68.867 85.121 C 68.344 85.462,67.692 85.853,67.417 85.989 C 67.142 86.125,66.879 86.277,66.833 86.327 C 66.787 86.377,66.262 86.666,65.667 86.968 C 65.071 87.270,64.471 87.585,64.333 87.668 C 64.072 87.826,61.718 88.905,61.000 89.195 C 60.771 89.288,60.371 89.470,60.111 89.599 C 59.852 89.728,59.514 89.830,59.361 89.826 C 59.209 89.822,59.383 89.663,59.750 89.473 C 60.838 88.909,63.242 87.450,63.352 87.288 C 63.408 87.206,63.521 87.144,63.602 87.152 C 63.728 87.164,67.192 84.767,67.786 84.257 C 68.074 84.010,68.326 83.816,69.083 83.262 C 70.539 82.197,73.351 79.533,74.525 78.108 C 74.740 77.846,75.029 77.506,75.167 77.352 C 76.303 76.078,78.527 72.679,78.380 72.440 C 78.326 72.354,78.183 72.419,78.062 72.585 C 76.707 74.437,76.526 74.091,77.606 71.719 C 77.823 71.243,78.000 70.752,78.000 70.627 C 78.000 70.502,78.068 70.329,78.151 70.242 C 78.234 70.155,78.388 69.783,78.494 69.417 C 78.932 67.889,79.183 66.911,79.260 66.429 C 79.305 66.147,79.444 65.579,79.568 65.167 L 79.794 64.417 80.010 64.880 C 80.273 65.448,79.779 67.927,79.063 69.631 C 78.739 70.403,78.763 70.871,79.125 70.804 C 79.396 70.754,80.362 68.994,81.076 67.250 C 81.227 66.883,81.421 66.453,81.508 66.294 C 81.595 66.135,81.667 65.869,81.667 65.702 C 81.667 65.536,81.734 65.329,81.816 65.242 C 81.939 65.111,82.796 62.490,82.904 61.917 C 82.921 61.825,83.016 61.487,83.115 61.167 C 83.214 60.846,83.385 60.133,83.495 59.583 C 83.604 59.033,83.761 58.276,83.843 57.901 C 83.925 57.525,84.037 56.813,84.092 56.317 C 84.147 55.822,84.261 54.967,84.345 54.417 C 84.909 50.720,84.233 42.386,82.975 37.531 C 82.102 34.161,81.357 32.929,81.556 35.186 C 81.616 35.863,81.777 36.829,81.914 37.333 C 82.179 38.310,82.242 41.339,82.009 41.917 C 81.904 42.177,81.849 42.067,81.757 41.417 C 81.379 38.730,79.933 33.538,79.088 31.833 C 78.975 31.604,78.402 30.442,77.816 29.252 C 77.230 28.061,76.506 26.732,76.208 26.297 C 75.910 25.863,75.667 25.467,75.667 25.417 C 75.667 25.073,72.366 21.032,70.929 19.617 C 69.611 18.318,66.609 15.833,66.357 15.833 C 66.268 15.833,66.169 15.774,66.139 15.700 C 66.108 15.627,65.408 15.128,64.583 14.590 C 63.758 14.052,62.880 13.475,62.632 13.306 C 62.383 13.138,62.141 13.000,62.093 13.000 C 62.046 13.000,61.611 12.749,61.128 12.442 C 60.645 12.134,59.275 11.412,58.083 10.836 C 56.892 10.261,55.773 9.716,55.596 9.626 C 55.153 9.399,53.329 8.726,51.833 8.238 C 49.836 7.586,49.088 7.410,45.833 6.827 C 44.815 6.645,39.044 6.449,38.500 6.578 M116.833 37.167 L 116.833 66.000 118.250 66.000 L 119.667 66.000 119.667 59.847 C 119.667 56.355,119.732 53.670,119.817 53.639 C 119.899 53.608,120.810 52.796,121.842 51.833 C 122.873 50.871,123.802 50.008,123.905 49.917 C 124.423 49.458,126.123 47.899,127.837 46.311 C 128.889 45.336,129.987 44.342,130.276 44.101 L 130.801 43.664 132.776 46.124 C 133.861 47.476,134.841 48.696,134.952 48.833 C 135.063 48.971,136.101 50.283,137.259 51.750 C 138.418 53.217,139.527 54.604,139.724 54.833 C 139.922 55.063,140.344 55.587,140.662 56.000 C 140.981 56.413,141.281 56.788,141.329 56.833 C 141.378 56.879,141.731 57.329,142.115 57.833 C 142.498 58.337,142.950 58.900,143.119 59.083 C 143.288 59.267,143.648 59.717,143.919 60.083 C 144.189 60.450,144.812 61.237,145.302 61.833 C 145.792 62.429,146.281 63.029,146.388 63.167 C 146.495 63.305,146.845 63.755,147.164 64.167 C 147.484 64.579,147.841 65.016,147.957 65.138 C 148.074 65.260,148.246 65.503,148.340 65.680 C 148.494 65.966,148.707 66.000,150.358 66.000 L 152.205 66.000 151.924 65.571 C 151.633 65.128,151.109 64.478,150.661 64.007 C 150.520 63.859,150.182 63.441,149.911 63.078 C 149.225 62.161,145.451 57.435,145.324 57.333 C 145.267 57.288,145.002 56.950,144.735 56.583 C 144.468 56.217,144.123 55.767,143.968 55.583 C 143.813 55.400,143.065 54.462,142.308 53.500 C 141.550 52.538,140.886 51.712,140.832 51.667 C 140.778 51.621,140.390 51.133,139.969 50.583 C 139.548 50.033,139.041 49.396,138.842 49.167 C 137.948 48.138,137.833 47.990,137.833 47.869 C 137.833 47.799,137.702 47.622,137.542 47.478 C 137.381 47.333,136.950 46.821,136.583 46.339 C 136.217 45.857,135.841 45.377,135.748 45.273 C 135.655 45.169,135.319 44.746,135.002 44.333 C 134.685 43.921,134.386 43.546,134.338 43.500 C 134.289 43.454,133.970 43.068,133.627 42.641 L 133.004 41.865 133.431 41.474 C 133.667 41.259,134.022 40.933,134.221 40.749 C 134.420 40.565,135.558 39.515,136.748 38.416 C 137.939 37.316,139.064 36.267,139.248 36.083 C 139.433 35.900,140.408 35.003,141.417 34.091 C 142.425 33.180,143.555 32.130,143.928 31.758 C 144.301 31.387,144.827 30.896,145.097 30.667 C 145.492 30.332,149.272 26.865,150.125 26.055 C 150.499 25.700,150.357 25.667,148.473 25.667 L 146.612 25.667 145.865 26.375 C 145.454 26.765,144.885 27.309,144.601 27.586 C 144.316 27.862,143.446 28.649,142.667 29.336 C 141.888 30.022,140.983 30.846,140.655 31.167 C 140.328 31.488,139.728 32.038,139.322 32.391 C 138.916 32.743,137.917 33.643,137.102 34.391 C 136.287 35.138,135.416 35.938,135.167 36.167 C 134.476 36.801,131.680 39.362,131.165 39.833 C 130.914 40.063,130.084 40.813,129.320 41.500 C 127.523 43.117,126.373 44.166,125.934 44.587 C 125.741 44.773,124.798 45.635,123.839 46.504 C 122.879 47.373,121.604 48.551,121.006 49.122 C 120.407 49.694,119.860 50.163,119.792 50.164 C 119.723 50.166,119.667 40.754,119.667 29.250 L 119.667 8.333 118.250 8.333 L 116.833 8.333 116.833 37.167 M207.750 37.167 L 207.750 66.000 209.125 66.000 L 210.500 66.000 210.500 59.914 L 210.500 53.827 211.062 53.289 C 211.372 52.992,212.204 52.231,212.911 51.598 C 213.618 50.964,214.480 50.176,214.826 49.848 C 215.172 49.519,216.159 48.612,217.019 47.833 C 217.879 47.054,218.958 46.066,219.417 45.637 C 221.299 43.877,221.534 43.690,221.763 43.778 C 221.893 43.828,222.000 43.967,222.000 44.087 C 222.000 44.207,222.056 44.331,222.125 44.361 C 222.226 44.406,223.447 45.878,224.448 47.163 C 224.557 47.302,224.895 47.721,225.198 48.093 C 225.502 48.465,225.975 49.058,226.250 49.410 C 226.525 49.761,226.975 50.330,227.250 50.674 C 227.525 51.017,227.948 51.550,228.191 51.857 C 229.223 53.166,230.252 54.452,230.653 54.935 C 231.135 55.514,231.329 55.758,232.167 56.833 C 232.958 57.850,233.063 57.982,233.698 58.760 C 234.002 59.132,234.475 59.727,234.750 60.082 C 235.025 60.436,235.381 60.863,235.542 61.030 C 235.702 61.197,235.833 61.402,235.833 61.486 C 235.833 61.570,235.892 61.664,235.963 61.694 C 236.034 61.725,236.452 62.200,236.890 62.750 C 237.949 64.079,237.992 64.133,238.662 65.001 C 239.454 66.025,239.374 65.995,241.298 65.997 C 243.199 66.000,243.220 65.978,242.266 64.950 C 242.028 64.693,241.833 64.418,241.833 64.339 C 241.833 64.259,241.776 64.169,241.706 64.139 C 241.636 64.108,240.681 62.958,239.584 61.583 C 238.488 60.208,237.551 59.046,237.503 59.000 C 237.456 58.954,237.045 58.429,236.591 57.833 C 236.137 57.237,235.635 56.600,235.475 56.417 C 235.316 56.233,234.563 55.296,233.803 54.333 C 233.043 53.371,232.381 52.546,232.331 52.500 C 232.282 52.454,231.981 52.079,231.662 51.667 C 230.861 50.629,230.103 49.682,229.194 48.580 C 229.042 48.395,228.697 47.945,228.428 47.580 C 228.160 47.215,227.710 46.652,227.428 46.329 C 227.147 46.007,226.729 45.493,226.500 45.188 C 226.271 44.883,225.968 44.510,225.827 44.359 C 225.686 44.207,225.351 43.783,225.082 43.417 C 224.813 43.050,224.460 42.605,224.297 42.427 C 223.835 41.924,223.906 41.797,225.446 40.398 C 226.241 39.675,227.165 38.821,227.499 38.500 C 227.833 38.179,228.515 37.542,229.015 37.083 C 229.515 36.625,230.817 35.425,231.908 34.417 C 233.000 33.408,234.385 32.133,234.986 31.583 C 236.360 30.327,237.430 29.328,238.917 27.917 C 239.558 27.308,240.327 26.618,240.625 26.385 C 241.448 25.740,241.317 25.667,239.346 25.667 L 237.526 25.667 236.305 26.771 C 235.633 27.379,234.708 28.229,234.250 28.660 C 233.792 29.091,232.606 30.170,231.616 31.059 C 230.625 31.947,229.610 32.879,229.360 33.129 C 229.110 33.379,228.638 33.808,228.310 34.083 C 227.983 34.358,226.943 35.296,226.000 36.167 C 225.057 37.037,224.201 37.825,224.098 37.917 C 222.730 39.135,220.488 41.168,220.152 41.496 C 219.914 41.727,219.057 42.517,218.247 43.250 C 217.437 43.983,216.534 44.808,216.240 45.083 C 215.731 45.560,213.609 47.491,212.027 48.917 C 211.620 49.283,211.110 49.755,210.894 49.966 L 210.500 50.348 210.500 29.341 L 210.500 8.333 209.125 8.333 L 207.750 8.333 207.750 37.167 M99.000 8.750 C 98.771 8.881,98.453 8.991,98.294 8.994 C 97.267 9.015,96.304 11.325,96.667 12.897 C 96.754 13.274,96.827 13.944,96.829 14.385 C 96.832 14.866,96.991 15.534,97.227 16.052 C 97.875 17.473,97.965 17.855,97.987 19.250 C 97.999 19.983,98.080 20.996,98.168 21.500 C 98.256 22.004,98.357 24.228,98.394 26.443 C 98.431 28.657,98.514 30.555,98.579 30.659 C 98.644 30.764,98.722 33.527,98.753 36.800 C 98.785 40.072,98.870 45.788,98.943 49.500 C 99.109 58.005,99.109 57.921,98.952 59.917 C 98.680 63.382,98.474 67.717,98.402 71.500 C 98.304 76.652,98.043 79.071,97.325 81.500 C 96.435 84.513,96.632 87.670,97.817 89.393 C 98.659 90.616,98.791 90.642,100.715 89.954 C 102.979 89.143,103.420 84.938,101.806 79.540 C 101.717 79.242,101.608 78.797,101.563 78.552 C 101.519 78.307,101.431 78.026,101.369 77.928 C 101.306 77.830,101.203 76.250,101.139 74.417 C 101.075 72.583,100.970 70.221,100.907 69.167 C 100.832 67.933,100.856 67.017,100.973 66.596 C 101.102 66.134,101.109 64.892,100.997 62.346 C 100.799 57.853,100.665 51.256,100.671 46.250 C 100.674 44.142,100.588 41.808,100.481 41.063 C 100.319 39.938,100.331 39.448,100.550 38.147 C 100.746 36.988,100.841 34.817,100.916 29.750 C 100.972 25.992,101.087 22.204,101.171 21.333 C 101.255 20.462,101.394 18.969,101.481 18.014 C 101.568 17.059,101.716 15.972,101.810 15.597 C 102.184 14.115,102.348 11.871,102.143 11.046 C 101.650 9.061,100.248 8.037,99.000 8.750 M72.833 17.739 C 72.833 18.105,73.243 18.899,73.937 19.875 C 74.247 20.311,74.500 20.709,74.500 20.760 C 74.500 20.810,75.400 22.125,76.500 23.680 C 77.600 25.236,78.500 26.556,78.500 26.614 C 78.500 26.671,78.672 26.951,78.882 27.234 C 80.717 29.709,84.302 37.235,84.585 39.203 C 84.620 39.453,84.718 39.790,84.802 39.953 C 84.885 40.116,84.997 40.512,85.050 40.833 C 85.103 41.154,85.309 42.317,85.508 43.417 C 85.853 45.318,85.865 45.726,85.768 51.708 C 85.699 55.883,85.721 58.000,85.832 58.000 C 85.925 58.000,86.001 57.944,86.003 57.875 C 86.004 57.806,86.117 57.225,86.253 56.584 C 88.251 47.150,86.247 36.454,80.834 27.667 C 80.467 27.071,80.120 26.452,80.064 26.292 C 80.007 26.131,79.907 26.000,79.841 26.000 C 79.774 26.000,79.634 25.811,79.529 25.581 C 79.345 25.175,77.342 22.374,76.833 21.808 C 76.696 21.655,76.283 21.171,75.917 20.731 C 74.658 19.223,72.833 17.452,72.833 17.739 M172.250 25.514 C 170.312 25.847,167.812 26.571,166.917 27.057 C 166.733 27.157,166.546 27.244,166.500 27.252 C 166.091 27.318,164.541 28.286,163.000 29.438 C 159.689 31.914,157.013 36.241,156.159 40.500 C 156.076 40.912,155.938 41.540,155.851 41.895 C 155.288 44.191,155.737 50.201,156.686 53.078 C 160.078 63.366,171.354 68.752,182.200 65.266 C 187.961 63.414,192.936 58.137,194.471 52.250 C 194.567 51.883,194.776 51.096,194.935 50.500 C 195.374 48.863,195.372 42.911,194.932 41.167 C 193.957 37.297,193.184 35.507,191.443 33.095 C 188.988 29.692,184.964 26.947,181.000 25.970 C 178.633 25.387,174.300 25.161,172.250 25.514 M263.083 25.522 C 259.819 26.109,257.056 27.150,255.083 28.536 C 254.717 28.793,254.229 29.134,254.000 29.292 C 253.452 29.671,250.984 32.134,250.619 32.667 C 248.814 35.297,248.341 36.191,247.620 38.333 C 246.210 42.523,246.026 46.458,247.015 51.250 C 247.783 54.968,250.441 59.453,253.167 61.629 C 254.534 62.721,254.518 62.709,255.439 63.297 C 259.231 65.717,265.664 66.891,270.196 65.990 C 275.896 64.857,280.064 62.059,283.084 57.339 C 283.404 56.838,283.667 56.356,283.667 56.269 C 283.667 56.181,283.767 55.991,283.890 55.846 C 284.110 55.588,284.867 53.806,284.866 53.548 C 284.866 53.476,284.939 53.280,285.029 53.113 C 285.209 52.777,285.656 51.150,285.747 50.500 C 285.779 50.271,285.886 49.596,285.985 49.000 C 286.213 47.621,286.219 43.820,285.995 42.648 C 285.901 42.154,285.793 41.525,285.756 41.250 C 285.656 40.512,284.975 38.060,284.691 37.417 C 283.851 35.515,282.539 33.237,281.768 32.341 C 279.048 29.182,275.464 26.872,271.917 25.992 C 269.468 25.385,265.132 25.154,263.083 25.522 M313.167 25.581 C 307.813 26.473,303.861 29.295,301.729 33.750 L 301.250 34.750 301.206 30.208 L 301.161 25.667 299.831 25.667 L 298.500 25.667 298.500 45.833 L 298.500 66.000 299.909 66.000 L 301.317 66.000 301.380 53.792 C 301.444 41.228,301.449 41.107,302.005 39.000 C 302.508 37.092,302.818 36.187,303.095 35.811 C 303.188 35.686,303.370 35.358,303.500 35.083 C 304.101 33.813,306.664 30.833,307.156 30.833 C 307.253 30.833,307.333 30.773,307.333 30.699 C 307.333 30.306,311.260 28.602,312.583 28.420 C 312.858 28.382,313.608 28.274,314.250 28.179 C 314.892 28.084,315.776 28.005,316.215 28.003 L 317.014 28.000 316.965 26.708 L 316.917 25.417 315.667 25.395 C 314.979 25.383,313.854 25.467,313.167 25.581 M339.667 25.519 C 334.425 26.357,330.345 28.685,327.139 32.667 C 325.344 34.895,324.011 38.021,323.193 41.917 C 323.135 42.192,323.090 44.029,323.092 46.000 C 323.097 49.790,323.096 49.783,324.095 53.095 C 326.039 59.536,331.761 64.574,338.667 65.922 C 342.477 66.667,350.155 65.770,351.680 64.403 C 351.825 64.273,352.042 64.167,352.164 64.167 C 352.626 64.167,355.637 61.984,356.882 60.747 C 362.107 55.556,363.956 47.643,361.877 39.368 C 361.732 38.792,361.551 38.281,361.473 38.234 C 361.396 38.186,361.333 38.034,361.333 37.897 C 361.333 35.890,356.656 29.898,354.000 28.502 C 353.771 28.382,353.546 28.230,353.500 28.164 C 353.419 28.049,352.002 27.275,351.833 27.255 C 351.787 27.249,351.658 27.186,351.545 27.115 C 349.482 25.804,343.182 24.958,339.667 25.519 M65.750 27.501 C 69.796 28.521,71.556 29.424,74.492 31.982 C 75.204 32.603,75.379 33.995,74.934 35.494 C 74.787 35.989,74.666 36.736,74.665 37.155 C 74.662 38.452,74.241 39.591,73.189 41.147 L 72.583 42.045 72.439 41.101 C 72.279 40.057,71.920 39.608,69.832 37.833 C 66.120 34.679,64.167 31.416,64.167 28.369 C 64.167 26.968,63.999 27.060,65.750 27.501 M179.629 28.435 C 183.325 29.335,186.411 31.294,188.763 34.233 C 193.010 39.538,193.731 48.158,190.479 54.750 C 190.076 55.568,189.814 55.999,189.542 56.297 C 189.427 56.422,189.333 56.587,189.333 56.665 C 189.333 57.194,186.436 59.988,184.734 61.100 C 178.847 64.947,169.177 64.388,164.572 59.936 C 164.467 59.834,164.126 59.518,163.815 59.234 C 162.822 58.328,161.736 56.978,160.878 55.583 C 160.622 55.167,159.837 53.528,159.839 53.414 C 159.839 53.368,159.735 53.124,159.607 52.873 C 158.529 50.763,158.037 44.518,158.731 41.750 C 159.573 38.392,160.199 36.977,161.864 34.667 C 164.093 31.575,167.800 29.140,171.415 28.394 C 171.599 28.356,172.012 28.260,172.333 28.180 C 173.716 27.835,177.741 27.976,179.629 28.435 M269.376 28.176 C 269.720 28.271,270.207 28.378,270.459 28.413 C 276.353 29.238,282.017 35.531,283.154 42.519 C 283.821 46.622,282.456 54.301,280.817 55.667 C 280.762 55.712,280.619 55.938,280.499 56.167 C 279.883 57.347,276.686 60.667,276.165 60.667 C 276.074 60.667,276.000 60.727,276.000 60.802 C 276.000 61.084,272.435 62.737,271.083 63.081 C 257.311 66.588,246.325 54.989,249.856 40.667 C 250.306 38.842,251.568 35.929,252.167 35.333 C 252.213 35.287,252.584 34.800,252.991 34.250 C 255.162 31.319,258.457 29.300,262.750 28.273 C 263.947 27.986,268.455 27.920,269.376 28.176 M347.178 28.496 C 350.621 29.358,356.167 32.963,356.167 34.338 C 356.167 34.427,356.240 34.500,356.329 34.500 C 356.418 34.500,356.616 34.744,356.769 35.042 C 356.922 35.340,357.093 35.621,357.150 35.667 C 357.696 36.108,359.032 39.526,359.575 41.868 C 359.867 43.131,359.933 48.116,359.672 49.250 C 359.587 49.617,359.479 50.142,359.430 50.418 C 359.382 50.694,359.186 51.369,358.995 51.918 C 358.804 52.467,358.603 53.062,358.547 53.239 C 358.420 53.641,356.993 56.387,356.852 56.500 C 356.795 56.546,356.527 56.883,356.257 57.250 C 355.519 58.250,353.692 60.028,352.750 60.663 C 351.299 61.641,351.100 61.760,350.333 62.112 C 349.218 62.624,347.057 63.341,346.450 63.401 C 346.157 63.430,345.258 63.551,344.453 63.670 C 343.261 63.845,342.688 63.846,341.369 63.673 C 340.479 63.556,339.507 63.435,339.211 63.404 C 338.914 63.373,338.521 63.267,338.336 63.168 C 338.151 63.069,338.000 63.025,338.000 63.070 C 338.000 63.169,336.201 62.494,335.167 62.006 C 323.554 56.530,322.423 37.905,333.271 30.782 C 337.325 28.120,342.367 27.291,347.178 28.496 M43.734 36.208 C 46.469 38.971,46.518 39.046,48.808 43.875 C 49.799 45.966,49.738 45.938,50.683 44.730 C 51.087 44.215,51.535 43.672,51.679 43.522 C 51.824 43.372,52.161 42.950,52.429 42.583 C 52.696 42.217,52.953 41.879,53.000 41.833 C 53.290 41.550,54.000 40.493,54.000 40.344 C 54.000 40.247,54.059 40.167,54.131 40.167 C 54.203 40.167,54.403 39.923,54.577 39.625 C 54.750 39.327,54.938 39.046,54.994 39.000 C 55.149 38.874,56.500 36.851,56.500 36.745 C 56.500 36.694,56.578 36.562,56.672 36.451 C 56.767 36.341,56.955 36.100,57.089 35.917 C 57.346 35.566,56.631 37.360,55.814 39.118 C 55.550 39.687,55.333 40.197,55.333 40.250 C 55.333 40.303,55.102 40.850,54.819 41.465 C 54.537 42.080,54.155 42.921,53.971 43.333 C 53.788 43.746,53.461 44.458,53.244 44.917 C 52.376 46.758,52.042 47.636,51.932 48.374 C 51.829 49.059,51.731 49.200,51.069 49.615 C 50.458 49.998,50.339 50.151,50.414 50.458 C 50.487 50.756,50.435 50.833,50.163 50.833 C 49.974 50.833,49.504 50.999,49.118 51.203 C 47.770 51.912,45.464 52.201,44.317 51.804 C 41.725 50.908,41.215 49.798,40.155 42.750 C 39.599 39.054,39.873 37.490,41.445 35.401 C 41.659 35.117,41.833 34.799,41.833 34.693 C 41.833 34.332,42.042 34.499,43.734 36.208 M29.706 36.817 C 31.645 38.999,33.149 41.696,33.990 44.500 C 34.326 45.621,34.600 46.432,35.173 48.000 C 35.457 48.779,35.760 49.660,35.845 49.958 C 35.930 50.256,36.069 50.744,36.153 51.042 C 36.605 52.647,37.232 54.339,37.755 55.365 C 38.079 56.002,38.409 56.649,38.487 56.803 C 38.566 56.957,38.769 57.373,38.940 57.728 C 39.110 58.083,39.587 58.728,40.000 59.162 C 43.860 63.223,44.629 63.888,46.712 64.967 C 47.241 65.241,47.766 65.539,47.879 65.628 C 47.991 65.718,48.567 65.961,49.159 66.169 C 53.525 67.700,58.341 67.274,59.296 65.272 C 60.257 63.256,60.444 62.400,60.571 59.417 C 60.932 50.997,61.095 48.914,61.522 47.277 C 61.614 46.926,61.726 46.326,61.771 45.944 C 61.816 45.562,61.922 44.950,62.006 44.583 C 62.090 44.217,62.160 43.143,62.163 42.198 C 62.167 40.354,62.311 40.167,62.731 41.460 C 62.980 42.230,63.038 42.991,63.253 48.333 C 63.310 49.754,63.458 51.254,63.583 51.667 C 63.707 52.079,63.925 53.092,64.066 53.917 C 64.773 58.030,64.880 58.624,65.009 59.140 C 65.360 60.546,64.881 64.986,64.282 65.885 C 63.858 66.521,61.660 68.977,59.997 70.672 C 56.731 74.003,51.188 74.283,44.961 71.430 C 43.970 70.977,41.979 69.857,41.833 69.672 C 41.787 69.613,41.467 69.394,41.121 69.183 C 40.774 68.973,40.399 68.711,40.287 68.600 C 40.175 68.490,39.607 68.107,39.025 67.749 C 38.442 67.391,37.906 66.941,37.833 66.748 C 37.759 66.556,37.279 66.081,36.765 65.693 C 36.005 65.119,35.847 64.918,35.922 64.618 C 35.993 64.332,35.910 64.203,35.548 64.039 C 35.293 63.923,34.746 63.384,34.333 62.841 C 33.921 62.298,33.527 61.849,33.458 61.843 C 33.390 61.838,33.333 61.727,33.333 61.597 C 33.333 61.467,33.277 61.336,33.207 61.306 C 32.935 61.186,31.991 59.840,31.693 59.147 C 30.969 57.464,29.883 55.316,29.007 53.833 C 27.996 52.123,27.843 51.773,27.438 50.250 C 27.292 49.700,27.013 48.691,26.819 48.008 C 26.625 47.324,26.432 46.574,26.392 46.341 C 26.351 46.108,26.235 45.617,26.135 45.250 C 25.609 43.327,25.980 39.337,26.810 38.000 C 28.058 35.988,28.727 35.715,29.706 36.817 M18.815 48.965 C 20.425 51.973,21.269 57.938,20.584 61.465 C 20.156 63.670,19.964 64.554,19.717 65.456 C 19.337 66.843,19.564 66.973,20.667 66.000 C 21.942 64.875,21.927 65.213,20.616 67.129 C 19.120 69.315,18.136 70.022,16.506 70.084 C 15.999 70.104,15.466 70.170,15.324 70.232 C 15.169 70.299,14.904 70.206,14.668 70.001 C 14.450 69.812,13.845 69.466,13.324 69.232 C 11.884 68.586,11.029 66.361,11.565 64.655 C 11.693 64.249,11.888 63.467,12.000 62.917 C 12.111 62.367,12.265 61.729,12.342 61.500 C 12.420 61.271,12.683 60.258,12.928 59.250 C 13.696 56.092,14.191 55.071,15.851 53.217 C 16.359 52.649,16.666 52.132,16.741 51.717 C 16.805 51.368,17.026 50.821,17.233 50.500 C 17.441 50.179,17.792 49.636,18.013 49.293 C 18.469 48.589,18.587 48.540,18.815 48.965 M153.778 76.111 C 153.521 76.368,153.653 88.167,153.913 88.167 C 154.049 88.167,154.207 87.979,154.265 87.750 C 154.394 87.237,154.359 87.236,155.200 87.792 C 156.611 88.724,158.999 88.441,160.387 87.178 C 162.213 85.515,161.675 81.912,159.420 80.698 C 158.633 80.274,156.260 80.336,155.500 80.800 C 155.179 80.996,154.785 81.236,154.625 81.334 C 154.352 81.500,154.333 81.337,154.333 78.756 C 154.333 76.045,154.248 75.640,153.778 76.111 M171.500 82.083 C 171.500 87.380,171.532 88.167,171.750 88.167 C 171.968 88.167,172.000 87.380,172.000 82.083 C 172.000 76.787,171.968 76.000,171.750 76.000 C 171.532 76.000,171.500 76.787,171.500 82.083 M227.778 76.111 C 227.717 76.172,227.667 77.372,227.667 78.778 C 227.667 80.938,227.628 81.333,227.417 81.333 C 227.279 81.333,227.167 81.270,227.167 81.192 C 227.167 80.504,223.781 80.155,222.693 80.730 C 220.254 82.020,219.752 85.241,221.686 87.194 C 223.041 88.563,225.416 88.761,227.026 87.641 C 227.590 87.248,227.610 87.252,227.735 87.750 C 227.796 87.994,227.959 88.167,228.128 88.167 C 228.397 88.167,228.414 87.769,228.370 82.292 C 228.320 75.816,228.298 75.591,227.778 76.111 M262.278 76.111 C 262.217 76.172,262.167 77.372,262.167 78.778 C 262.167 80.183,262.139 81.333,262.104 81.333 C 262.070 81.333,261.676 81.128,261.229 80.877 C 256.983 78.491,252.697 84.266,256.377 87.415 C 257.735 88.577,261.296 88.606,261.806 87.458 C 261.920 87.202,262.134 87.347,262.235 87.750 C 262.406 88.430,263.074 88.330,262.938 87.646 C 262.880 87.359,262.833 84.622,262.833 81.563 C 262.833 75.988,262.793 75.596,262.278 76.111 M390.667 82.083 C 390.667 87.380,390.699 88.167,390.917 88.167 C 391.134 88.167,391.167 87.380,391.167 82.083 C 391.167 76.787,391.134 76.000,390.917 76.000 C 390.699 76.000,390.667 76.787,390.667 82.083 M182.528 77.028 C 182.565 77.287,182.713 77.435,182.972 77.472 C 183.295 77.517,183.351 77.461,183.305 77.138 C 183.268 76.879,183.121 76.732,182.862 76.695 C 182.539 76.649,182.483 76.705,182.528 77.028 M210.060 76.916 C 210.003 77.066,210.033 77.266,210.127 77.360 C 210.399 77.632,210.917 77.449,210.917 77.081 C 210.917 76.657,210.212 76.521,210.060 76.916 M283.833 77.083 C 283.833 77.417,283.917 77.500,284.250 77.500 C 284.583 77.500,284.667 77.417,284.667 77.083 C 284.667 76.750,284.583 76.667,284.250 76.667 C 283.917 76.667,283.833 76.750,283.833 77.083 M312.667 79.321 L 312.667 80.500 311.833 80.500 C 311.204 80.500,311.000 80.561,311.000 80.750 C 311.000 80.939,311.204 81.000,311.833 81.000 L 312.667 81.000 312.667 84.008 C 312.667 87.354,312.773 87.796,313.665 88.166 C 314.389 88.466,315.957 88.284,316.392 87.849 C 316.849 87.392,316.355 87.171,315.755 87.565 C 315.187 87.937,314.300 87.902,313.772 87.488 L 313.333 87.142 313.333 84.071 L 313.333 81.000 314.806 81.000 C 316.003 81.000,316.278 80.953,316.278 80.750 C 316.278 80.547,316.004 80.500,314.813 80.500 L 313.349 80.500 313.299 79.377 C 313.224 77.657,312.667 77.608,312.667 79.321 M121.583 80.486 C 120.919 80.670,120.329 80.939,119.894 81.256 C 119.556 81.503,119.529 81.490,119.361 81.008 C 119.059 80.142,118.599 80.335,118.727 81.273 C 118.786 81.699,118.833 84.249,118.833 86.940 C 118.833 91.722,118.841 91.833,119.167 91.833 C 119.484 91.833,119.500 91.722,119.500 89.503 L 119.500 87.174 120.265 87.712 C 121.220 88.384,123.656 88.506,124.583 87.928 C 128.695 85.366,126.210 79.202,121.583 80.486 M196.000 80.439 C 192.627 81.092,191.846 85.897,194.810 87.761 C 196.516 88.834,201.361 87.926,200.590 86.677 C 200.436 86.429,200.052 86.456,199.950 86.723 C 199.903 86.846,199.443 87.146,198.928 87.390 C 195.156 89.176,191.703 84.823,194.596 81.930 C 195.937 80.589,197.836 80.476,199.465 81.641 C 199.979 82.008,200.500 82.033,200.500 81.691 C 200.500 81.536,199.916 81.101,199.181 80.707 C 198.752 80.477,196.696 80.304,196.000 80.439 M240.583 80.482 C 239.787 80.697,238.885 81.115,238.752 81.331 C 238.502 81.735,238.948 81.869,239.523 81.562 C 242.216 80.122,244.531 80.820,244.774 83.145 L 244.883 84.191 244.290 83.788 C 242.469 82.552,239.262 82.863,238.284 84.371 C 236.480 87.154,240.395 89.568,243.693 87.706 L 244.636 87.173 244.810 87.670 C 244.930 88.014,245.093 88.167,245.342 88.167 C 245.624 88.167,245.674 88.103,245.572 87.875 C 245.501 87.715,245.399 86.260,245.346 84.642 C 245.241 81.422,245.197 81.283,244.100 80.715 C 243.544 80.428,241.326 80.281,240.583 80.482 M297.555 80.483 C 297.265 80.558,296.693 80.815,296.284 81.055 L 295.540 81.491 295.441 80.995 C 295.368 80.631,295.247 80.500,294.985 80.500 C 294.677 80.500,294.645 80.563,294.749 80.958 C 294.815 81.210,294.906 82.935,294.950 84.792 C 295.015 87.548,295.073 88.167,295.265 88.167 C 295.458 88.167,295.501 87.642,295.504 85.208 L 295.507 82.250 296.161 81.788 C 297.911 80.550,299.856 80.523,300.833 81.724 C 301.237 82.220,301.252 82.325,301.305 85.201 C 301.357 87.995,301.379 88.167,301.680 88.167 C 302.104 88.167,302.171 82.949,301.759 81.964 C 301.234 80.707,299.312 80.030,297.555 80.483 M327.917 80.478 C 324.545 81.360,323.815 86.019,326.763 87.841 C 328.171 88.711,331.252 88.369,332.407 87.214 C 333.103 86.518,332.534 86.315,331.704 86.963 C 329.418 88.748,326.064 87.703,325.666 85.081 C 325.495 83.954,325.400 83.982,329.302 84.035 L 332.825 84.083 332.923 83.638 C 333.337 81.751,330.323 79.848,327.917 80.478 M344.917 80.478 C 341.640 81.337,340.896 85.861,343.717 87.775 C 344.807 88.515,347.039 88.483,348.292 87.710 L 349.167 87.170 349.163 88.210 C 349.152 91.374,345.367 92.823,343.198 90.495 C 342.908 90.184,342.864 90.179,342.656 90.429 C 342.167 91.019,344.345 92.167,345.954 92.167 C 347.254 92.167,349.167 91.299,349.167 90.709 C 349.167 90.617,349.274 90.452,349.406 90.342 C 349.600 90.181,349.648 89.406,349.662 86.197 C 349.672 84.026,349.750 81.950,349.836 81.583 C 350.059 80.629,350.040 80.500,349.670 80.500 C 349.457 80.500,349.303 80.648,349.235 80.917 C 349.107 81.427,349.142 81.427,348.316 80.906 C 347.581 80.442,345.873 80.227,344.917 80.478 M362.417 80.451 C 362.233 80.494,361.800 80.753,361.454 81.026 L 360.824 81.523 360.646 81.012 C 360.435 80.407,359.903 80.283,360.062 80.875 C 360.117 81.081,360.163 82.806,360.164 84.708 C 360.167 88.055,360.177 88.167,360.500 88.167 C 360.820 88.167,360.833 88.056,360.833 85.334 L 360.833 82.501 361.410 81.863 C 362.192 80.997,363.175 80.668,363.827 81.053 C 364.443 81.417,364.667 81.407,364.667 81.016 C 364.667 80.504,363.469 80.202,362.417 80.451 M375.417 80.437 C 374.530 80.666,373.679 81.062,373.594 81.284 C 373.426 81.720,373.677 81.865,374.110 81.581 C 375.181 80.880,377.027 80.643,378.021 81.081 C 379.153 81.578,379.500 82.159,379.500 83.552 L 379.500 84.189 378.959 83.803 C 376.353 81.941,371.814 83.641,372.585 86.191 C 372.831 87.004,373.213 87.667,373.436 87.667 C 373.563 87.667,373.667 87.734,373.667 87.817 C 373.667 88.655,377.184 88.453,378.670 87.530 L 379.469 87.033 379.575 87.600 C 379.661 88.057,379.759 88.167,380.081 88.167 C 380.463 88.167,380.470 88.147,380.241 87.708 C 380.062 87.366,380.002 86.571,380.001 84.564 C 380.000 81.588,379.912 81.308,378.793 80.729 C 378.281 80.464,376.056 80.272,375.417 80.437 M136.167 83.307 C 136.167 86.564,136.378 87.254,137.596 87.966 C 138.609 88.559,140.616 88.432,141.806 87.700 L 142.667 87.170 142.667 87.668 C 142.667 88.067,142.738 88.167,143.024 88.167 C 143.362 88.167,143.375 88.112,143.274 87.142 C 143.215 86.579,143.167 84.854,143.167 83.309 C 143.167 80.923,143.129 80.500,142.917 80.500 C 142.704 80.500,142.666 80.940,142.666 83.458 L 142.664 86.417 142.060 86.828 C 140.048 88.199,138.158 88.158,137.217 86.724 C 136.963 86.337,136.908 85.819,136.861 83.383 C 136.809 80.672,136.787 80.500,136.486 80.500 C 136.184 80.500,136.167 80.651,136.167 83.307 M182.500 84.333 C 182.500 88.056,182.510 88.167,182.833 88.167 C 183.157 88.167,183.167 88.056,183.167 84.333 C 183.167 80.611,183.157 80.500,182.833 80.500 C 182.510 80.500,182.500 80.611,182.500 84.333 M210.167 84.333 C 210.167 87.630,210.202 88.167,210.417 88.167 C 210.632 88.167,210.667 87.630,210.667 84.333 C 210.667 81.037,210.632 80.500,210.417 80.500 C 210.202 80.500,210.167 81.037,210.167 84.333 M284.000 84.333 C 284.000 87.630,284.035 88.167,284.250 88.167 C 284.465 88.167,284.500 87.630,284.500 84.333 C 284.500 81.037,284.465 80.500,284.250 80.500 C 284.035 80.500,284.000 81.037,284.000 84.333 M124.167 81.222 C 126.749 82.530,126.618 86.270,123.946 87.487 C 122.602 88.099,121.416 87.917,120.042 86.889 L 119.500 86.483 119.500 84.347 L 119.500 82.211 120.187 81.756 C 121.672 80.773,122.943 80.603,124.167 81.222 M158.731 81.086 C 161.525 82.254,161.641 86.015,158.926 87.410 C 157.539 88.122,156.312 87.964,154.875 86.889 L 154.333 86.483 154.336 84.450 C 154.339 82.176,154.328 82.209,155.250 81.634 C 156.572 80.811,157.661 80.639,158.731 81.086 M225.667 81.049 C 225.987 81.164,226.569 81.464,226.958 81.715 L 227.667 82.171 227.667 84.310 C 227.667 86.707,227.704 86.623,226.301 87.400 C 223.980 88.686,221.167 87.005,221.167 84.333 C 221.167 81.957,223.488 80.263,225.667 81.049 M260.183 81.026 C 260.495 81.133,261.069 81.436,261.458 81.701 L 262.167 82.183 262.167 84.316 C 262.167 86.706,262.203 86.623,260.801 87.400 C 257.841 89.040,254.561 85.849,256.018 82.748 C 256.212 82.337,256.419 82.000,256.478 82.000 C 256.538 82.000,256.773 81.831,257.002 81.625 C 257.810 80.893,259.088 80.653,260.183 81.026 M330.201 81.054 C 331.167 81.390,332.004 82.280,332.229 83.208 L 332.340 83.667 329.003 83.667 C 327.168 83.667,325.667 83.627,325.667 83.578 C 325.667 81.928,328.378 80.418,330.201 81.054 M347.284 81.034 C 347.540 81.145,348.069 81.449,348.458 81.709 L 349.167 82.183 349.163 84.300 L 349.160 86.417 348.538 86.856 C 345.728 88.840,342.667 87.549,342.667 84.380 C 342.667 82.015,345.238 80.152,347.284 81.034 M243.583 84.009 C 244.845 84.597,245.215 85.799,244.376 86.577 C 241.923 88.852,237.777 87.778,238.662 85.097 C 239.121 83.708,241.709 83.136,243.583 84.009 M378.536 84.177 C 380.080 85.234,379.822 86.406,377.834 87.363 C 375.667 88.408,373.170 87.561,373.167 85.781 C 373.165 84.218,374.740 83.385,377.120 83.691 C 377.598 83.753,378.236 83.972,378.536 84.177 " stroke="none" fill="#845ca4" fill-rule="evenodd"></path><path id="path1" d="M207.748 37.167 C 207.748 52.979,207.768 59.448,207.792 51.542 C 207.816 43.635,207.816 30.698,207.792 22.792 C 207.768 14.885,207.748 21.354,207.748 37.167 M244.712 83.500 C 244.712 83.912,244.745 84.081,244.784 83.875 C 244.824 83.669,244.824 83.331,244.784 83.125 C 244.745 82.919,244.712 83.087,244.712 83.500 M327.375 84.124 C 328.360 84.154,329.973 84.154,330.958 84.124 C 331.944 84.095,331.137 84.071,329.167 84.071 C 327.196 84.071,326.390 84.095,327.375 84.124 M244.709 85.583 C 244.711 85.950,244.745 86.080,244.785 85.873 C 244.824 85.666,244.823 85.366,244.781 85.206 C 244.739 85.047,244.707 85.217,244.709 85.583 " stroke="none" fill="#885ca4" fill-rule="evenodd"></path><path id="path2" d="M207.748 37.167 C 207.748 52.979,207.768 59.448,207.792 51.542 C 207.816 43.635,207.816 30.698,207.792 22.792 C 207.768 14.885,207.748 21.354,207.748 37.167 M244.712 83.500 C 244.712 83.912,244.745 84.081,244.784 83.875 C 244.824 83.669,244.824 83.331,244.784 83.125 C 244.745 82.919,244.712 83.087,244.712 83.500 M327.375 84.124 C 328.360 84.154,329.973 84.154,330.958 84.124 C 331.944 84.095,331.137 84.071,329.167 84.071 C 327.196 84.071,326.390 84.095,327.375 84.124 M244.709 85.583 C 244.711 85.950,244.745 86.080,244.785 85.873 C 244.824 85.666,244.823 85.366,244.781 85.206 C 244.739 85.047,244.707 85.217,244.709 85.583 " stroke="none" fill="#885ca4" fill-rule="evenodd"></path><path id="path3" d="M207.748 37.167 C 207.748 52.979,207.768 59.448,207.792 51.542 C 207.816 43.635,207.816 30.698,207.792 22.792 C 207.768 14.885,207.748 21.354,207.748 37.167 M244.712 83.500 C 244.712 83.912,244.745 84.081,244.784 83.875 C 244.824 83.669,244.824 83.331,244.784 83.125 C 244.745 82.919,244.712 83.087,244.712 83.500 M327.375 84.124 C 328.360 84.154,329.973 84.154,330.958 84.124 C 331.944 84.095,331.137 84.071,329.167 84.071 C 327.196 84.071,326.390 84.095,327.375 84.124 M244.709 85.583 C 244.711 85.950,244.745 86.080,244.785 85.873 C 244.824 85.666,244.823 85.366,244.781 85.206 C 244.739 85.047,244.707 85.217,244.709 85.583 " stroke="none" fill="#885ca4" fill-rule="evenodd"></path><path id="path4" d="M207.748 37.167 C 207.748 52.979,207.768 59.448,207.792 51.542 C 207.816 43.635,207.816 30.698,207.792 22.792 C 207.768 14.885,207.748 21.354,207.748 37.167 M244.712 83.500 C 244.712 83.912,244.745 84.081,244.784 83.875 C 244.824 83.669,244.824 83.331,244.784 83.125 C 244.745 82.919,244.712 83.087,244.712 83.500 M327.375 84.124 C 328.360 84.154,329.973 84.154,330.958 84.124 C 331.944 84.095,331.137 84.071,329.167 84.071 C 327.196 84.071,326.390 84.095,327.375 84.124 M244.709 85.583 C 244.711 85.950,244.745 86.080,244.785 85.873 C 244.824 85.666,244.823 85.366,244.781 85.206 C 244.739 85.047,244.707 85.217,244.709 85.583 " stroke="none" fill="#885ca4" fill-rule="evenodd"></path></g></svg>